<?xml version="1.0" encoding="UTF-8" standalone="no"?><!DOCTYPE svg PUBLIC "-//W3C//DTD SVG 1.1//EN" "http://www.w3.org/Graphics/SVG/1.1/DTD/svg11.dtd"><svg width="100%" height="100%" viewBox="0 0 6042 1865" version="1.1" xmlns="http://www.w3.org/2000/svg" xmlns:xlink="http://www.w3.org/1999/xlink" xml:space="preserve" xmlns:serif="http://www.serif.com/" style="fill-rule:evenodd;clip-rule:evenodd;stroke-linejoin:round;stroke-miterlimit:2;"><path d="M2410.613,1864.54l-0.554,-19.513c20.672,-6.611 1515.829,-543.031 2225.575,-723.47c48.836,-12.416 100.632,-16.221 57.222,-23.808c-30.711,-5.367 -89.209,11.154 -222.322,-63.382c-74.392,-41.655 -141.302,-133.568 -151.24,-147.219c-47.997,-65.932 -118.576,-128.945 -91.621,-130.079c20.522,-0.863 271.284,2.062 433.182,28.377c104.768,17.029 154.425,43.984 153.941,26.913c-0.475,-16.759 -262.46,-89.191 -395.833,-109.29c-39.678,-5.979 -261.073,-39.343 -472.172,-169.217c-9.214,-5.669 -13.283,-7.095 -6.287,-15.304c7.556,-8.866 388.65,-2.298 578.295,52.777c161.643,46.943 -108.676,-75.326 -408.653,-115.472c-327.651,-43.85 -384.967,-78.324 -568.058,-131.767c-1.977,-0.577 -68.72,-20.059 -15.202,-20.776c14.93,-0.2 493.703,-32.376 750.717,48.344l24.62,2.913c2.988,-0.184 4.543,5.079 7.531,4.895c17.12,-1.053 2.998,-8.164 -9.567,-19.265c-330.894,-110.52 -544.486,-124.995 -756.462,-120.775c-292.85,5.83 -292.047,-0.667 -583.336,-31.375c-129.66,-13.669 -161.928,3.215 -149.167,-16.615c3.375,-5.245 726.715,-273.628 1341.478,-128.376c849.045,200.607 1167.834,777.051 1285.307,925.655c21.614,27.341 358.069,0.75 537.954,211.547c47.692,55.887 80.34,137.88 57.768,144.968c-231.326,72.638 -194.507,150.746 -574.738,359.682c-75.774,41.637 -370.065,269.036 -1097.765,115.197c-145.449,-30.749 -318.368,-80.132 -441.231,-124.177c-48.205,-17.281 -73.237,-5.148 -725.72,89.325c-25.472,3.688 -24.945,3.402 -50.189,7.297c-25.969,4.007 -124.749,25.776 -96.538,2.47c16.492,-13.625 21.191,-3.798 247.14,-102.118c182.81,-79.548 219.603,-91.009 239.332,-97.155c22.029,-6.862 12.733,-22.979 1.865,-19.412c-9.408,3.088 -227.052,91.213 -607.596,226.013c-57.886,20.505 -326.149,45.209 -517.678,82.187Zm3323.956,-699.817c4.107,0.786 83.725,16.014 49.287,-17.4c-27.099,-26.294 -124.823,-26.412 -49.287,17.4Z" style="fill:#0bf;"/><path d="M994.662,670.915c-265.246,0 -431.019,132.623 -497.322,397.887c99.472,-132.642 215.529,-182.378 348.151,-149.208c75.666,18.898 129.746,73.824 189.617,134.578c97.516,98.983 210.395,213.554 456.931,213.554c265.246,0 431.019,-132.623 497.34,-397.887c-99.472,132.642 -215.529,182.378 -348.151,149.208c-75.666,-18.898 -129.746,-73.824 -189.617,-134.578c-97.535,-98.983 -210.395,-213.554 -456.95,-213.554Zm-497.322,596.812c-265.246,0 -431.019,132.623 -497.34,397.887c99.472,-132.642 215.51,-182.378 348.133,-149.208c75.685,18.935 129.746,73.824 189.617,134.578c97.516,98.983 210.414,213.554 456.931,213.554c265.264,0 431.038,-132.623 497.359,-397.887c-99.472,132.642 -215.529,182.378 -348.151,149.208c-75.666,-18.898 -129.746,-73.824 -189.617,-134.56c-97.516,-99.002 -210.395,-213.573 -456.931,-213.573Z" style="fill:#38bdf8;fill-rule:nonzero;"/></svg>